<?xml version="1.0" standalone="no"?>
<!DOCTYPE svg PUBLIC "-//W3C//DTD SVG 20010904//EN"
 "http://www.w3.org/TR/2001/REC-SVG-20010904/DTD/svg10.dtd">
<svg version="1.0" xmlns="http://www.w3.org/2000/svg"
 width="3338.000000pt" height="3338.000000pt" viewBox="0 0 3338.000000 3338.000000"
 preserveAspectRatio="xMidYMid meet">
<metadata>
Created by potrace 1.14, written by Peter Selinger 2001-2017
</metadata>
<g transform="translate(0.000000,3338.000000) scale(0.100000,-0.100000)"
fill="#000000" stroke="none">
<path d="M2972 26118 l3 -2333 110 -73 c61 -40 211 -140 335 -221 124 -82 371
-245 550 -363 179 -118 399 -263 490 -323 91 -60 291 -192 445 -293 154 -102
366 -241 470 -310 105 -69 296 -195 425 -280 129 -86 318 -210 420 -277 102
-67 300 -197 440 -290 140 -92 352 -232 470 -310 118 -78 323 -213 455 -300
132 -87 353 -233 490 -323 138 -91 373 -246 524 -346 151 -99 399 -263 550
-363 152 -100 395 -260 541 -356 146 -96 391 -258 545 -359 338 -223 640 -422
995 -656 146 -96 348 -230 450 -297 102 -67 298 -196 435 -287 319 -210 609
-401 850 -560 105 -69 318 -210 475 -313 157 -104 375 -248 485 -320 110 -72
308 -203 440 -290 132 -87 337 -222 455 -300 118 -78 314 -207 435 -287 587
-387 717 -472 930 -613 127 -83 297 -195 379 -250 l148 -98 32 19 c17 10 168
109 336 219 391 258 637 420 930 613 129 85 332 219 450 297 118 78 307 203
420 277 113 74 340 224 505 333 165 109 377 249 470 310 94 61 292 192 440
290 149 98 326 215 395 260 69 45 265 174 435 287 416 275 917 605 1415 933
118 78 328 216 465 307 138 90 338 223 445 293 107 71 321 212 475 313 154
102 345 228 425 280 80 53 276 182 435 287 160 105 371 245 470 310 99 65 293
193 430 283 138 91 333 220 435 287 102 67 307 202 455 300 149 98 367 242
485 320 118 78 321 211 450 297 129 85 327 215 440 290 113 74 320 210 460
303 140 92 352 232 470 310 118 78 310 204 425 280 532 350 726 478 932 614
l222 146 1 2333 c0 1864 -3 2332 -12 2326 -14 -8 -347 -228 -728 -479 -124
-82 -315 -208 -425 -280 -188 -124 -375 -247 -900 -593 -121 -80 -317 -209
-435 -287 -118 -78 -323 -213 -455 -300 -132 -87 -346 -228 -475 -313 -129
-85 -334 -220 -455 -300 -391 -258 -716 -472 -905 -597 -102 -67 -293 -193
-425 -280 -625 -412 -751 -495 -900 -593 -88 -58 -277 -183 -420 -277 -241
-159 -373 -246 -960 -633 -121 -80 -323 -214 -450 -297 -126 -84 -329 -217
-450 -297 -251 -165 -564 -371 -905 -596 -129 -86 -318 -210 -420 -277 -178
-117 -416 -274 -925 -610 -132 -87 -337 -222 -455 -300 -118 -78 -314 -207
-435 -287 -223 -147 -513 -338 -910 -600 -243 -160 -555 -365 -890 -586 -121
-80 -260 -171 -308 -204 -49 -32 -94 -58 -101 -58 -8 0 -60 31 -117 69 -232
153 -860 567 -1314 866 -110 72 -312 206 -450 297 -322 212 -680 448 -920 606
-104 69 -293 193 -420 277 -126 83 -322 212 -435 287 -113 74 -317 209 -455
300 -246 162 -476 314 -930 613 -126 83 -336 221 -465 307 -129 85 -327 215
-440 290 -113 74 -320 210 -460 303 -140 93 -345 227 -455 300 -220 145 -524
345 -885 583 -129 86 -332 219 -450 297 -244 160 -558 368 -895 590 -126 84
-337 222 -467 308 -131 87 -345 227 -475 314 -440 290 -677 446 -878 578 -110
73 -312 206 -450 297 -306 202 -594 391 -865 570 -113 74 -324 213 -470 310
-146 96 -337 222 -425 280 -88 58 -263 173 -389 257 -126 83 -230 151 -232
151 -2 0 -3 -1050 -2 -2332z"/>
<path d="M2972 14278 l3 -6861 205 -138 c113 -75 522 -347 910 -605 388 -257
1168 -775 1735 -1152 566 -376 1035 -687 1042 -689 11 -4 13 889 13 4560 0
2511 4 4568 8 4571 5 3 229 -142 498 -322 506 -339 1515 -1015 2324 -1557 640
-429 1367 -916 1985 -1330 286 -192 736 -493 1000 -670 264 -177 741 -497
1060 -710 319 -214 783 -524 1030 -690 1567 -1050 1838 -1232 1891 -1266 l40
-26 190 126 c176 118 1076 720 2134 1429 250 168 694 465 985 660 533 357
1102 739 1965 1317 448 300 911 610 2140 1433 731 490 1429 958 1968 1319 233
156 430 287 438 290 12 4 14 -596 14 -4567 0 -3880 2 -4571 14 -4567 7 3 337
220 732 483 1731 1150 2297 1525 2716 1803 l447 296 1 6863 c0 3775 -4 6862
-8 6860 -8 -3 -63 -39 -629 -413 -150 -99 -368 -243 -485 -320 -117 -77 -373
-245 -568 -374 -195 -129 -440 -290 -545 -359 -104 -69 -287 -189 -405 -267
-118 -78 -321 -212 -450 -297 -389 -256 -672 -443 -915 -603 -385 -254 -761
-502 -945 -623 -318 -209 -709 -467 -1330 -877 -140 -93 -347 -229 -460 -303
-113 -74 -308 -203 -435 -287 -126 -83 -338 -223 -470 -310 -132 -87 -346
-228 -475 -313 -129 -85 -327 -216 -440 -290 -351 -232 -667 -440 -875 -577
-110 -72 -308 -203 -440 -290 -480 -317 -744 -490 -910 -600 -93 -61 -291
-192 -440 -290 -148 -98 -340 -224 -425 -280 -85 -56 -297 -195 -470 -310
-173 -115 -405 -268 -515 -340 -290 -191 -608 -400 -865 -570 -124 -82 -234
-149 -245 -149 -11 0 -155 89 -320 199 -165 109 -397 262 -515 340 -118 78
-330 217 -470 310 -567 374 -1002 661 -1320 870 -91 60 -298 196 -460 303
-162 108 -371 246 -465 307 -93 61 -285 188 -425 280 -140 93 -345 228 -455
300 -110 72 -319 210 -465 307 -146 96 -353 232 -460 303 -107 71 -314 207
-460 303 -146 97 -344 227 -440 290 -96 63 -285 188 -420 277 -506 334 -1028
678 -1370 903 -96 63 -292 193 -435 287 -143 95 -361 239 -485 320 -124 82
-328 217 -455 300 -126 83 -318 209 -425 280 -190 125 -387 255 -910 600 -436
288 -678 447 -875 577 -177 116 -341 224 -935 616 -129 86 -332 219 -450 297
-118 78 -329 217 -468 308 -139 92 -255 167 -257 167 -3 0 -4 -3088 -3 -6862z"/>
</g>
</svg>
